<?xml version="1.0" encoding="utf-8"?>
<!-- Generator: Adobe Illustrator 24.0.2, SVG Export Plug-In . SVG Version: 6.00 Build 0)  -->
<svg version="1.1" id="Слой_1" xmlns="http://www.w3.org/2000/svg" xmlns:xlink="http://www.w3.org/1999/xlink" x="0px" y="0px"
	 viewBox="0 0 16 16" style="enable-background:new 0 0 16 16;" xml:space="preserve">
<style type="text/css">
	.st0{fill:none;stroke:#4C4CFF;stroke-linecap:round;stroke-linejoin:round;}
	.st1{fill:none;stroke:#FFFFFF;stroke-width:0.5;stroke-linecap:round;stroke-linejoin:round;}
	.st2{fill:none;stroke:#E33CD5;stroke-linecap:round;stroke-linejoin:round;}
	.st3{fill:none;stroke:#00CCCC;stroke-linecap:round;stroke-linejoin:round;}
	.st4{fill:none;stroke:#4C4CFF;stroke-width:1;stroke-miterlimit:4;}
	.st5{fill:none;stroke:#4C4CFF;}
	.st6{fill:none;stroke:#FFFFFF;stroke-width:0.5;stroke-miterlimit:4;}
	.st7{fill:none;stroke:#FFFFFF;stroke-width:0.5;}
</style>
<g>
	<path class="st0" d="M13.4,11.8c0.2-0.2,0-0.4-0.3-0.5c-3.5,0-6.5,0-10.2,0.2c-0.3,0-0.4,0.3-0.2,0.5c1.3,1.2,3.1,2,5.2,2
		C10.2,14,12.1,13.1,13.4,11.8z"/>
	<path class="st0" d="M1.9,5C1.8,5.2,2,5.5,2.3,5.4c4-0.4,7-0.5,11.3-0.3c0.3,0,0.5-0.2,0.3-0.4C12.6,3.1,10.4,2,8,2
		C5.4,2,3.1,3.2,1.9,5z"/>
</g>
<g>
	<path class="st0" d="M13.4,11.8c0.2-0.2,0-0.4-0.3-0.5c-3.5,0-6.5,0-10.2,0.2c-0.3,0-0.4,0.3-0.2,0.5c1.3,1.2,3.1,2,5.2,2
		C10.2,14,12.1,13.1,13.4,11.8z"/>
	<path class="st0" d="M1.9,5C1.8,5.2,2,5.5,2.3,5.4c4-0.4,7-0.5,11.3-0.3c0.3,0,0.5-0.2,0.3-0.4C12.6,3.1,10.4,2,8,2
		C5.4,2,3.1,3.2,1.9,5z"/>
</g>
<path class="st0" d="M13.4,11.8c0.2-0.2,0-0.4-0.3-0.5c-3.5,0-6.5,0-10.2,0.2c-0.3,0-0.4,0.3-0.2,0.5c1.3,1.2,3.1,2,5.2,2
	C10.2,14,12.1,13.1,13.4,11.8z"/>
<path class="st0" d="M1.9,5C1.8,5.2,2,5.5,2.3,5.4c4-0.4,7-0.5,11.3-0.3c0.3,0,0.5-0.2,0.3-0.4C12.6,3.1,10.4,2,8,2
	C5.4,2,3.1,3.2,1.9,5z"/>
<path class="st1" d="M13.4,11.8c0.2-0.2,0-0.4-0.3-0.5c-3.5,0-6.5,0-10.2,0.2c-0.3,0-0.4,0.3-0.2,0.5c1.3,1.2,3.1,2,5.2,2
	C10.2,14,12.1,13.1,13.4,11.8z"/>
<path class="st1" d="M1.9,5C1.8,5.2,2,5.5,2.3,5.4c4-0.4,7-0.5,11.3-0.3c0.3,0,0.5-0.2,0.3-0.4C12.6,3.1,10.4,2,8,2
	C5.4,2,3.1,3.2,1.9,5z"/>
<g>
	<path class="st2" d="M15,8.7c0-0.3-0.2-0.6-0.6-0.6C9.8,7.8,6.3,7.8,1.7,8C1.3,8,1,8.3,1,8.6c0,0.4,0.2,0.9,0.3,1.3
		c0.1,0.2,0.4,0.4,0.7,0.4c4.4-0.1,7.8-0.1,12,0c0.3,0,0.6-0.1,0.7-0.4C14.8,9.5,14.9,9.1,15,8.7z"/>
</g>
<g>
	<path class="st2" d="M15,8.7c0-0.3-0.2-0.6-0.6-0.6C9.8,7.8,6.3,7.8,1.7,8C1.3,8,1,8.3,1,8.6c0,0.4,0.2,0.9,0.3,1.3
		c0.1,0.2,0.4,0.4,0.7,0.4c4.4-0.1,7.8-0.1,12,0c0.3,0,0.6-0.1,0.7-0.4C14.8,9.5,14.9,9.1,15,8.7z"/>
</g>
<path class="st2" d="M15,8.7c0-0.3-0.2-0.6-0.6-0.6C9.8,7.8,6.3,7.8,1.7,8C1.3,8,1,8.3,1,8.6c0,0.4,0.2,0.9,0.3,1.3
	c0.1,0.2,0.4,0.4,0.7,0.4c4.4-0.1,7.8-0.1,12,0c0.3,0,0.6-0.1,0.7-0.4C14.8,9.5,14.9,9.1,15,8.7z"/>
<path class="st1" d="M15,8.7c0-0.3-0.2-0.6-0.6-0.6C9.8,7.8,6.3,7.8,1.7,8C1.3,8,1,8.3,1,8.6c0,0.4,0.2,0.9,0.3,1.3
	c0.1,0.2,0.4,0.4,0.7,0.4c4.4-0.1,7.8-0.1,12,0c0.3,0,0.6-0.1,0.7-0.4C14.8,9.5,14.9,9.1,15,8.7z"/>
<g>
	<path class="st3" d="M1,6.7c0.9-0.6,1.9-0.6,2.8,0s1.9,0.6,2.8,0s1.9-0.6,2.8,0s1.9,0.6,2.8,0s1.9-0.6,2.8,0"/>
</g>
<g>
	<path class="st3" d="M1,6.7c0.9-0.6,1.9-0.6,2.8,0s1.9,0.6,2.8,0s1.9-0.6,2.8,0s1.9,0.6,2.8,0s1.9-0.6,2.8,0"/>
</g>
<path class="st3" d="M1,6.7c0.9-0.6,1.9-0.6,2.8,0s1.9,0.6,2.8,0s1.9-0.6,2.8,0s1.9,0.6,2.8,0s1.9-0.6,2.8,0"/>
<path class="st1" d="M1,6.7c0.9-0.6,1.9-0.6,2.8,0s1.9,0.6,2.8,0s1.9-0.6,2.8,0s1.9,0.6,2.8,0s1.9-0.6,2.8,0"/>
<g>
	<ellipse transform="matrix(0.31 -0.9507 0.9507 0.31 -7.9928 13.9755)" class="st4" cx="5.6" cy="12.5" rx="0.2" ry="0.3"/>
	<ellipse transform="matrix(0.1853 -0.9827 0.9827 0.1853 5.1621 14.0389)" class="st5" cx="11" cy="3.9" rx="0.3" ry="0.5"/>
	<ellipse transform="matrix(0.9859 -0.1675 0.1675 0.9859 -1.9493 1.8776)" class="st4" cx="10.2" cy="12.5" rx="0.3" ry="0.2"/>
	<ellipse class="st5" cx="7.5" cy="4.1" rx="0.5" ry="0.3"/>
	<ellipse transform="matrix(0.1853 -0.9827 0.9827 0.1853 4.3357 11.2421)" class="st5" cx="8.9" cy="3" rx="0.3" ry="0.5"/>
	<ellipse class="st5" cx="8" cy="13" rx="0.3" ry="0.2"/>
	<ellipse transform="matrix(0.9394 -0.3428 0.3428 0.9394 -0.9491 1.9805)" class="st5" cx="5.1" cy="3.7" rx="0.5" ry="0.3"/>
</g>
<g>
	<ellipse transform="matrix(0.31 -0.9507 0.9507 0.31 -7.9928 13.9755)" class="st4" cx="5.6" cy="12.5" rx="0.2" ry="0.3"/>
	<ellipse transform="matrix(0.1853 -0.9827 0.9827 0.1853 5.1621 14.0389)" class="st5" cx="11" cy="3.9" rx="0.3" ry="0.5"/>
	<ellipse transform="matrix(0.9859 -0.1675 0.1675 0.9859 -1.9493 1.8776)" class="st4" cx="10.2" cy="12.5" rx="0.3" ry="0.2"/>
	<ellipse class="st5" cx="7.5" cy="4.1" rx="0.5" ry="0.3"/>
	<ellipse transform="matrix(0.1853 -0.9827 0.9827 0.1853 4.3357 11.2421)" class="st5" cx="8.9" cy="3" rx="0.3" ry="0.5"/>
	<ellipse class="st5" cx="8" cy="13" rx="0.3" ry="0.2"/>
	<ellipse transform="matrix(0.9394 -0.3428 0.3428 0.9394 -0.9491 1.9805)" class="st5" cx="5.1" cy="3.7" rx="0.5" ry="0.3"/>
</g>
<ellipse transform="matrix(0.31 -0.9507 0.9507 0.31 -7.9928 13.9755)" class="st4" cx="5.6" cy="12.5" rx="0.2" ry="0.3"/>
<ellipse transform="matrix(0.1853 -0.9827 0.9827 0.1853 5.1621 14.0389)" class="st5" cx="11" cy="3.9" rx="0.3" ry="0.5"/>
<ellipse transform="matrix(0.9859 -0.1675 0.1675 0.9859 -1.9493 1.8776)" class="st4" cx="10.2" cy="12.5" rx="0.3" ry="0.2"/>
<ellipse class="st5" cx="7.5" cy="4.1" rx="0.5" ry="0.3"/>
<ellipse transform="matrix(0.1853 -0.9827 0.9827 0.1853 4.3357 11.2421)" class="st5" cx="8.9" cy="3" rx="0.3" ry="0.5"/>
<ellipse class="st5" cx="8" cy="13" rx="0.3" ry="0.2"/>
<ellipse transform="matrix(0.9394 -0.3428 0.3428 0.9394 -0.9491 1.9805)" class="st5" cx="5.1" cy="3.7" rx="0.5" ry="0.3"/>
<ellipse transform="matrix(0.31 -0.9507 0.9507 0.31 -7.9928 13.9755)" class="st6" cx="5.6" cy="12.5" rx="0.2" ry="0.3"/>
<ellipse transform="matrix(0.1853 -0.9827 0.9827 0.1853 5.1621 14.0389)" class="st7" cx="11" cy="3.9" rx="0.3" ry="0.5"/>
<ellipse transform="matrix(0.9859 -0.1675 0.1675 0.9859 -1.9493 1.8776)" class="st6" cx="10.2" cy="12.5" rx="0.3" ry="0.2"/>
<ellipse class="st7" cx="7.5" cy="4.1" rx="0.5" ry="0.3"/>
<ellipse transform="matrix(0.1853 -0.9827 0.9827 0.1853 4.3357 11.2421)" class="st7" cx="8.9" cy="3" rx="0.3" ry="0.5"/>
<ellipse class="st7" cx="8" cy="13" rx="0.3" ry="0.2"/>
<ellipse transform="matrix(0.9394 -0.3428 0.3428 0.9394 -0.9491 1.9805)" class="st7" cx="5.1" cy="3.7" rx="0.5" ry="0.3"/>
</svg>
